<svg xmlns="http://www.w3.org/2000/svg" viewBox="0 0 64 64"><g id="Layer_21" data-name="Layer 21"><path d="M45.27,28.23a13.33,13.33,0,1,0-26.48,0C9,30.2,3,34.21,3,38.78c0,6.64,12.74,11.84,29,11.84s29-5.2,29-11.84C61,34.22,55,30.22,45.27,28.23ZM20.79,26.62c.58-14.9,21.87-14.91,22.48,0v10.2c0,1.37-4.39,3.36-11.27,3.36-6.61,0-10.69-1.78-11.21-3.11ZM32,48.62C7,48.71-6.92,36.22,18.79,30.26v7a2.29,2.29,0,0,0,.07.36s0,0,0,.05c2.18,6.21,26,6.09,26.39-.85V30.28C70.92,36.25,56.93,48.71,32,48.62Z" id="id_101" style="fill: rgb(255, 255, 255);"></path></g></svg>